<mxfile host="app.diagrams.net" agent="Mozilla/5.0 (Macintosh; Intel Mac OS X 10.15; rv:135.0) Gecko/20100101 Firefox/135.0" version="26.0.16">
  <diagram name="Page-1" id="CYeFMBYK5X68HyN_rzvf">
    <mxGraphModel dx="2049" dy="947" grid="1" gridSize="10" guides="1" tooltips="1" connect="1" arrows="1" fold="1" page="1" pageScale="1" pageWidth="1100" pageHeight="850" math="0" shadow="0">
      <root>
        <mxCell id="0" />
        <mxCell id="1" parent="0" />
        <mxCell id="7W3f4tXXFIH6tPftR0kk-1" value="EMPLOYEE" style="shape=table;startSize=25;container=1;collapsible=0;childLayout=tableLayout;fixedRows=1;rowLines=1;fontStyle=1;align=center;resizeLast=1;" vertex="1" parent="1">
          <mxGeometry x="156" y="20" width="137" height="115" as="geometry" />
        </mxCell>
        <mxCell id="7W3f4tXXFIH6tPftR0kk-2" style="shape=tableRow;horizontal=0;startSize=0;swimlaneHead=0;swimlaneBody=0;fillColor=none;collapsible=0;dropTarget=0;points=[[0,0.5],[1,0.5]];portConstraint=eastwest;top=0;left=0;right=0;bottom=0;" vertex="1" parent="7W3f4tXXFIH6tPftR0kk-1">
          <mxGeometry y="25" width="137" height="22" as="geometry" />
        </mxCell>
        <mxCell id="7W3f4tXXFIH6tPftR0kk-3" value="int" style="shape=partialRectangle;connectable=0;fillColor=none;top=0;left=0;bottom=0;right=0;align=left;spacingLeft=2;overflow=hidden;fontSize=11;" vertex="1" parent="7W3f4tXXFIH6tPftR0kk-2">
          <mxGeometry width="36" height="22" as="geometry">
            <mxRectangle width="36" height="22" as="alternateBounds" />
          </mxGeometry>
        </mxCell>
        <mxCell id="7W3f4tXXFIH6tPftR0kk-4" value="EmployeeID" style="shape=partialRectangle;connectable=0;fillColor=none;top=0;left=0;bottom=0;right=0;align=left;spacingLeft=2;overflow=hidden;fontSize=11;" vertex="1" parent="7W3f4tXXFIH6tPftR0kk-2">
          <mxGeometry x="36" width="79" height="22" as="geometry">
            <mxRectangle width="79" height="22" as="alternateBounds" />
          </mxGeometry>
        </mxCell>
        <mxCell id="7W3f4tXXFIH6tPftR0kk-5" value="PK" style="shape=partialRectangle;connectable=0;fillColor=none;top=0;left=0;bottom=0;right=0;align=left;spacingLeft=2;overflow=hidden;fontSize=11;" vertex="1" parent="7W3f4tXXFIH6tPftR0kk-2">
          <mxGeometry x="115" width="22" height="22" as="geometry">
            <mxRectangle width="22" height="22" as="alternateBounds" />
          </mxGeometry>
        </mxCell>
        <mxCell id="7W3f4tXXFIH6tPftR0kk-6" style="shape=tableRow;horizontal=0;startSize=0;swimlaneHead=0;swimlaneBody=0;fillColor=none;collapsible=0;dropTarget=0;points=[[0,0.5],[1,0.5]];portConstraint=eastwest;top=0;left=0;right=0;bottom=0;" vertex="1" parent="7W3f4tXXFIH6tPftR0kk-1">
          <mxGeometry y="47" width="137" height="22" as="geometry" />
        </mxCell>
        <mxCell id="7W3f4tXXFIH6tPftR0kk-7" value="string" style="shape=partialRectangle;connectable=0;fillColor=none;top=0;left=0;bottom=0;right=0;align=left;spacingLeft=2;overflow=hidden;fontSize=11;" vertex="1" parent="7W3f4tXXFIH6tPftR0kk-6">
          <mxGeometry width="36" height="22" as="geometry">
            <mxRectangle width="36" height="22" as="alternateBounds" />
          </mxGeometry>
        </mxCell>
        <mxCell id="7W3f4tXXFIH6tPftR0kk-8" value="Name" style="shape=partialRectangle;connectable=0;fillColor=none;top=0;left=0;bottom=0;right=0;align=left;spacingLeft=2;overflow=hidden;fontSize=11;" vertex="1" parent="7W3f4tXXFIH6tPftR0kk-6">
          <mxGeometry x="36" width="79" height="22" as="geometry">
            <mxRectangle width="79" height="22" as="alternateBounds" />
          </mxGeometry>
        </mxCell>
        <mxCell id="7W3f4tXXFIH6tPftR0kk-9" value="" style="shape=partialRectangle;connectable=0;fillColor=none;top=0;left=0;bottom=0;right=0;align=left;spacingLeft=2;overflow=hidden;fontSize=11;" vertex="1" parent="7W3f4tXXFIH6tPftR0kk-6">
          <mxGeometry x="115" width="22" height="22" as="geometry">
            <mxRectangle width="22" height="22" as="alternateBounds" />
          </mxGeometry>
        </mxCell>
        <mxCell id="7W3f4tXXFIH6tPftR0kk-10" style="shape=tableRow;horizontal=0;startSize=0;swimlaneHead=0;swimlaneBody=0;fillColor=none;collapsible=0;dropTarget=0;points=[[0,0.5],[1,0.5]];portConstraint=eastwest;top=0;left=0;right=0;bottom=0;" vertex="1" parent="7W3f4tXXFIH6tPftR0kk-1">
          <mxGeometry y="69" width="137" height="22" as="geometry" />
        </mxCell>
        <mxCell id="7W3f4tXXFIH6tPftR0kk-11" value="string" style="shape=partialRectangle;connectable=0;fillColor=none;top=0;left=0;bottom=0;right=0;align=left;spacingLeft=2;overflow=hidden;fontSize=11;" vertex="1" parent="7W3f4tXXFIH6tPftR0kk-10">
          <mxGeometry width="36" height="22" as="geometry">
            <mxRectangle width="36" height="22" as="alternateBounds" />
          </mxGeometry>
        </mxCell>
        <mxCell id="7W3f4tXXFIH6tPftR0kk-12" value="Role" style="shape=partialRectangle;connectable=0;fillColor=none;top=0;left=0;bottom=0;right=0;align=left;spacingLeft=2;overflow=hidden;fontSize=11;" vertex="1" parent="7W3f4tXXFIH6tPftR0kk-10">
          <mxGeometry x="36" width="79" height="22" as="geometry">
            <mxRectangle width="79" height="22" as="alternateBounds" />
          </mxGeometry>
        </mxCell>
        <mxCell id="7W3f4tXXFIH6tPftR0kk-13" value="" style="shape=partialRectangle;connectable=0;fillColor=none;top=0;left=0;bottom=0;right=0;align=left;spacingLeft=2;overflow=hidden;fontSize=11;" vertex="1" parent="7W3f4tXXFIH6tPftR0kk-10">
          <mxGeometry x="115" width="22" height="22" as="geometry">
            <mxRectangle width="22" height="22" as="alternateBounds" />
          </mxGeometry>
        </mxCell>
        <mxCell id="7W3f4tXXFIH6tPftR0kk-14" style="shape=tableRow;horizontal=0;startSize=0;swimlaneHead=0;swimlaneBody=0;fillColor=none;collapsible=0;dropTarget=0;points=[[0,0.5],[1,0.5]];portConstraint=eastwest;top=0;left=0;right=0;bottom=0;" vertex="1" parent="7W3f4tXXFIH6tPftR0kk-1">
          <mxGeometry y="91" width="137" height="22" as="geometry" />
        </mxCell>
        <mxCell id="7W3f4tXXFIH6tPftR0kk-15" value="int" style="shape=partialRectangle;connectable=0;fillColor=none;top=0;left=0;bottom=0;right=0;align=left;spacingLeft=2;overflow=hidden;fontSize=11;" vertex="1" parent="7W3f4tXXFIH6tPftR0kk-14">
          <mxGeometry width="36" height="22" as="geometry">
            <mxRectangle width="36" height="22" as="alternateBounds" />
          </mxGeometry>
        </mxCell>
        <mxCell id="7W3f4tXXFIH6tPftR0kk-16" value="DepartmentID" style="shape=partialRectangle;connectable=0;fillColor=none;top=0;left=0;bottom=0;right=0;align=left;spacingLeft=2;overflow=hidden;fontSize=11;" vertex="1" parent="7W3f4tXXFIH6tPftR0kk-14">
          <mxGeometry x="36" width="79" height="22" as="geometry">
            <mxRectangle width="79" height="22" as="alternateBounds" />
          </mxGeometry>
        </mxCell>
        <mxCell id="7W3f4tXXFIH6tPftR0kk-17" value="FK" style="shape=partialRectangle;connectable=0;fillColor=none;top=0;left=0;bottom=0;right=0;align=left;spacingLeft=2;overflow=hidden;fontSize=11;" vertex="1" parent="7W3f4tXXFIH6tPftR0kk-14">
          <mxGeometry x="115" width="22" height="22" as="geometry">
            <mxRectangle width="22" height="22" as="alternateBounds" />
          </mxGeometry>
        </mxCell>
        <mxCell id="7W3f4tXXFIH6tPftR0kk-18" value="DEPARTMENT" style="shape=table;startSize=25;container=1;collapsible=0;childLayout=tableLayout;fixedRows=1;rowLines=1;fontStyle=1;align=center;resizeLast=1;" vertex="1" parent="1">
          <mxGeometry x="20" y="302" width="154" height="70" as="geometry" />
        </mxCell>
        <mxCell id="7W3f4tXXFIH6tPftR0kk-19" style="shape=tableRow;horizontal=0;startSize=0;swimlaneHead=0;swimlaneBody=0;fillColor=none;collapsible=0;dropTarget=0;points=[[0,0.5],[1,0.5]];portConstraint=eastwest;top=0;left=0;right=0;bottom=0;" vertex="1" parent="7W3f4tXXFIH6tPftR0kk-18">
          <mxGeometry y="25" width="154" height="22" as="geometry" />
        </mxCell>
        <mxCell id="7W3f4tXXFIH6tPftR0kk-20" value="int" style="shape=partialRectangle;connectable=0;fillColor=none;top=0;left=0;bottom=0;right=0;align=left;spacingLeft=2;overflow=hidden;fontSize=11;" vertex="1" parent="7W3f4tXXFIH6tPftR0kk-19">
          <mxGeometry width="36" height="22" as="geometry">
            <mxRectangle width="36" height="22" as="alternateBounds" />
          </mxGeometry>
        </mxCell>
        <mxCell id="7W3f4tXXFIH6tPftR0kk-21" value="DepartmentID" style="shape=partialRectangle;connectable=0;fillColor=none;top=0;left=0;bottom=0;right=0;align=left;spacingLeft=2;overflow=hidden;fontSize=11;" vertex="1" parent="7W3f4tXXFIH6tPftR0kk-19">
          <mxGeometry x="36" width="96" height="22" as="geometry">
            <mxRectangle width="96" height="22" as="alternateBounds" />
          </mxGeometry>
        </mxCell>
        <mxCell id="7W3f4tXXFIH6tPftR0kk-22" value="PK" style="shape=partialRectangle;connectable=0;fillColor=none;top=0;left=0;bottom=0;right=0;align=left;spacingLeft=2;overflow=hidden;fontSize=11;" vertex="1" parent="7W3f4tXXFIH6tPftR0kk-19">
          <mxGeometry x="132" width="22" height="22" as="geometry">
            <mxRectangle width="22" height="22" as="alternateBounds" />
          </mxGeometry>
        </mxCell>
        <mxCell id="7W3f4tXXFIH6tPftR0kk-23" style="shape=tableRow;horizontal=0;startSize=0;swimlaneHead=0;swimlaneBody=0;fillColor=none;collapsible=0;dropTarget=0;points=[[0,0.5],[1,0.5]];portConstraint=eastwest;top=0;left=0;right=0;bottom=0;" vertex="1" parent="7W3f4tXXFIH6tPftR0kk-18">
          <mxGeometry y="47" width="154" height="22" as="geometry" />
        </mxCell>
        <mxCell id="7W3f4tXXFIH6tPftR0kk-24" value="string" style="shape=partialRectangle;connectable=0;fillColor=none;top=0;left=0;bottom=0;right=0;align=left;spacingLeft=2;overflow=hidden;fontSize=11;" vertex="1" parent="7W3f4tXXFIH6tPftR0kk-23">
          <mxGeometry width="36" height="22" as="geometry">
            <mxRectangle width="36" height="22" as="alternateBounds" />
          </mxGeometry>
        </mxCell>
        <mxCell id="7W3f4tXXFIH6tPftR0kk-25" value="DepartmentName" style="shape=partialRectangle;connectable=0;fillColor=none;top=0;left=0;bottom=0;right=0;align=left;spacingLeft=2;overflow=hidden;fontSize=11;" vertex="1" parent="7W3f4tXXFIH6tPftR0kk-23">
          <mxGeometry x="36" width="96" height="22" as="geometry">
            <mxRectangle width="96" height="22" as="alternateBounds" />
          </mxGeometry>
        </mxCell>
        <mxCell id="7W3f4tXXFIH6tPftR0kk-26" value="" style="shape=partialRectangle;connectable=0;fillColor=none;top=0;left=0;bottom=0;right=0;align=left;spacingLeft=2;overflow=hidden;fontSize=11;" vertex="1" parent="7W3f4tXXFIH6tPftR0kk-23">
          <mxGeometry x="132" width="22" height="22" as="geometry">
            <mxRectangle width="22" height="22" as="alternateBounds" />
          </mxGeometry>
        </mxCell>
        <mxCell id="7W3f4tXXFIH6tPftR0kk-27" value="WORK_HOURS" style="shape=table;startSize=25;container=1;collapsible=0;childLayout=tableLayout;fixedRows=1;rowLines=1;fontStyle=1;align=center;resizeLast=1;" vertex="1" parent="1">
          <mxGeometry x="274" y="268" width="156" height="137" as="geometry" />
        </mxCell>
        <mxCell id="7W3f4tXXFIH6tPftR0kk-28" style="shape=tableRow;horizontal=0;startSize=0;swimlaneHead=0;swimlaneBody=0;fillColor=none;collapsible=0;dropTarget=0;points=[[0,0.5],[1,0.5]];portConstraint=eastwest;top=0;left=0;right=0;bottom=0;" vertex="1" parent="7W3f4tXXFIH6tPftR0kk-27">
          <mxGeometry y="25" width="156" height="22" as="geometry" />
        </mxCell>
        <mxCell id="7W3f4tXXFIH6tPftR0kk-29" value="int" style="shape=partialRectangle;connectable=0;fillColor=none;top=0;left=0;bottom=0;right=0;align=left;spacingLeft=2;overflow=hidden;fontSize=11;" vertex="1" parent="7W3f4tXXFIH6tPftR0kk-28">
          <mxGeometry width="54" height="22" as="geometry">
            <mxRectangle width="54" height="22" as="alternateBounds" />
          </mxGeometry>
        </mxCell>
        <mxCell id="7W3f4tXXFIH6tPftR0kk-30" value="WorkHoursID" style="shape=partialRectangle;connectable=0;fillColor=none;top=0;left=0;bottom=0;right=0;align=left;spacingLeft=2;overflow=hidden;fontSize=11;" vertex="1" parent="7W3f4tXXFIH6tPftR0kk-28">
          <mxGeometry x="54" width="80" height="22" as="geometry">
            <mxRectangle width="80" height="22" as="alternateBounds" />
          </mxGeometry>
        </mxCell>
        <mxCell id="7W3f4tXXFIH6tPftR0kk-31" value="PK" style="shape=partialRectangle;connectable=0;fillColor=none;top=0;left=0;bottom=0;right=0;align=left;spacingLeft=2;overflow=hidden;fontSize=11;" vertex="1" parent="7W3f4tXXFIH6tPftR0kk-28">
          <mxGeometry x="134" width="22" height="22" as="geometry">
            <mxRectangle width="22" height="22" as="alternateBounds" />
          </mxGeometry>
        </mxCell>
        <mxCell id="7W3f4tXXFIH6tPftR0kk-32" style="shape=tableRow;horizontal=0;startSize=0;swimlaneHead=0;swimlaneBody=0;fillColor=none;collapsible=0;dropTarget=0;points=[[0,0.5],[1,0.5]];portConstraint=eastwest;top=0;left=0;right=0;bottom=0;" vertex="1" parent="7W3f4tXXFIH6tPftR0kk-27">
          <mxGeometry y="47" width="156" height="22" as="geometry" />
        </mxCell>
        <mxCell id="7W3f4tXXFIH6tPftR0kk-33" value="int" style="shape=partialRectangle;connectable=0;fillColor=none;top=0;left=0;bottom=0;right=0;align=left;spacingLeft=2;overflow=hidden;fontSize=11;" vertex="1" parent="7W3f4tXXFIH6tPftR0kk-32">
          <mxGeometry width="54" height="22" as="geometry">
            <mxRectangle width="54" height="22" as="alternateBounds" />
          </mxGeometry>
        </mxCell>
        <mxCell id="7W3f4tXXFIH6tPftR0kk-34" value="EmployeeID" style="shape=partialRectangle;connectable=0;fillColor=none;top=0;left=0;bottom=0;right=0;align=left;spacingLeft=2;overflow=hidden;fontSize=11;" vertex="1" parent="7W3f4tXXFIH6tPftR0kk-32">
          <mxGeometry x="54" width="80" height="22" as="geometry">
            <mxRectangle width="80" height="22" as="alternateBounds" />
          </mxGeometry>
        </mxCell>
        <mxCell id="7W3f4tXXFIH6tPftR0kk-35" value="FK" style="shape=partialRectangle;connectable=0;fillColor=none;top=0;left=0;bottom=0;right=0;align=left;spacingLeft=2;overflow=hidden;fontSize=11;" vertex="1" parent="7W3f4tXXFIH6tPftR0kk-32">
          <mxGeometry x="134" width="22" height="22" as="geometry">
            <mxRectangle width="22" height="22" as="alternateBounds" />
          </mxGeometry>
        </mxCell>
        <mxCell id="7W3f4tXXFIH6tPftR0kk-36" style="shape=tableRow;horizontal=0;startSize=0;swimlaneHead=0;swimlaneBody=0;fillColor=none;collapsible=0;dropTarget=0;points=[[0,0.5],[1,0.5]];portConstraint=eastwest;top=0;left=0;right=0;bottom=0;" vertex="1" parent="7W3f4tXXFIH6tPftR0kk-27">
          <mxGeometry y="69" width="156" height="22" as="geometry" />
        </mxCell>
        <mxCell id="7W3f4tXXFIH6tPftR0kk-37" value="date" style="shape=partialRectangle;connectable=0;fillColor=none;top=0;left=0;bottom=0;right=0;align=left;spacingLeft=2;overflow=hidden;fontSize=11;" vertex="1" parent="7W3f4tXXFIH6tPftR0kk-36">
          <mxGeometry width="54" height="22" as="geometry">
            <mxRectangle width="54" height="22" as="alternateBounds" />
          </mxGeometry>
        </mxCell>
        <mxCell id="7W3f4tXXFIH6tPftR0kk-38" value="WorkDate" style="shape=partialRectangle;connectable=0;fillColor=none;top=0;left=0;bottom=0;right=0;align=left;spacingLeft=2;overflow=hidden;fontSize=11;" vertex="1" parent="7W3f4tXXFIH6tPftR0kk-36">
          <mxGeometry x="54" width="80" height="22" as="geometry">
            <mxRectangle width="80" height="22" as="alternateBounds" />
          </mxGeometry>
        </mxCell>
        <mxCell id="7W3f4tXXFIH6tPftR0kk-39" value="" style="shape=partialRectangle;connectable=0;fillColor=none;top=0;left=0;bottom=0;right=0;align=left;spacingLeft=2;overflow=hidden;fontSize=11;" vertex="1" parent="7W3f4tXXFIH6tPftR0kk-36">
          <mxGeometry x="134" width="22" height="22" as="geometry">
            <mxRectangle width="22" height="22" as="alternateBounds" />
          </mxGeometry>
        </mxCell>
        <mxCell id="7W3f4tXXFIH6tPftR0kk-40" style="shape=tableRow;horizontal=0;startSize=0;swimlaneHead=0;swimlaneBody=0;fillColor=none;collapsible=0;dropTarget=0;points=[[0,0.5],[1,0.5]];portConstraint=eastwest;top=0;left=0;right=0;bottom=0;" vertex="1" parent="7W3f4tXXFIH6tPftR0kk-27">
          <mxGeometry y="91" width="156" height="22" as="geometry" />
        </mxCell>
        <mxCell id="7W3f4tXXFIH6tPftR0kk-41" value="int" style="shape=partialRectangle;connectable=0;fillColor=none;top=0;left=0;bottom=0;right=0;align=left;spacingLeft=2;overflow=hidden;fontSize=11;" vertex="1" parent="7W3f4tXXFIH6tPftR0kk-40">
          <mxGeometry width="54" height="22" as="geometry">
            <mxRectangle width="54" height="22" as="alternateBounds" />
          </mxGeometry>
        </mxCell>
        <mxCell id="7W3f4tXXFIH6tPftR0kk-42" value="HoursWorked" style="shape=partialRectangle;connectable=0;fillColor=none;top=0;left=0;bottom=0;right=0;align=left;spacingLeft=2;overflow=hidden;fontSize=11;" vertex="1" parent="7W3f4tXXFIH6tPftR0kk-40">
          <mxGeometry x="54" width="80" height="22" as="geometry">
            <mxRectangle width="80" height="22" as="alternateBounds" />
          </mxGeometry>
        </mxCell>
        <mxCell id="7W3f4tXXFIH6tPftR0kk-43" value="" style="shape=partialRectangle;connectable=0;fillColor=none;top=0;left=0;bottom=0;right=0;align=left;spacingLeft=2;overflow=hidden;fontSize=11;" vertex="1" parent="7W3f4tXXFIH6tPftR0kk-40">
          <mxGeometry x="134" width="22" height="22" as="geometry">
            <mxRectangle width="22" height="22" as="alternateBounds" />
          </mxGeometry>
        </mxCell>
        <mxCell id="7W3f4tXXFIH6tPftR0kk-44" style="shape=tableRow;horizontal=0;startSize=0;swimlaneHead=0;swimlaneBody=0;fillColor=none;collapsible=0;dropTarget=0;points=[[0,0.5],[1,0.5]];portConstraint=eastwest;top=0;left=0;right=0;bottom=0;" vertex="1" parent="7W3f4tXXFIH6tPftR0kk-27">
          <mxGeometry y="113" width="156" height="22" as="geometry" />
        </mxCell>
        <mxCell id="7W3f4tXXFIH6tPftR0kk-45" value="timestamp" style="shape=partialRectangle;connectable=0;fillColor=none;top=0;left=0;bottom=0;right=0;align=left;spacingLeft=2;overflow=hidden;fontSize=11;" vertex="1" parent="7W3f4tXXFIH6tPftR0kk-44">
          <mxGeometry width="54" height="22" as="geometry">
            <mxRectangle width="54" height="22" as="alternateBounds" />
          </mxGeometry>
        </mxCell>
        <mxCell id="7W3f4tXXFIH6tPftR0kk-46" value="LogTime" style="shape=partialRectangle;connectable=0;fillColor=none;top=0;left=0;bottom=0;right=0;align=left;spacingLeft=2;overflow=hidden;fontSize=11;" vertex="1" parent="7W3f4tXXFIH6tPftR0kk-44">
          <mxGeometry x="54" width="80" height="22" as="geometry">
            <mxRectangle width="80" height="22" as="alternateBounds" />
          </mxGeometry>
        </mxCell>
        <mxCell id="7W3f4tXXFIH6tPftR0kk-47" value="" style="shape=partialRectangle;connectable=0;fillColor=none;top=0;left=0;bottom=0;right=0;align=left;spacingLeft=2;overflow=hidden;fontSize=11;" vertex="1" parent="7W3f4tXXFIH6tPftR0kk-44">
          <mxGeometry x="134" width="22" height="22" as="geometry">
            <mxRectangle width="22" height="22" as="alternateBounds" />
          </mxGeometry>
        </mxCell>
        <mxCell id="7W3f4tXXFIH6tPftR0kk-48" value="SUPPLIER" style="shape=table;startSize=25;container=1;collapsible=0;childLayout=tableLayout;fixedRows=1;rowLines=1;fontStyle=1;align=center;resizeLast=1;" vertex="1" parent="1">
          <mxGeometry x="549" y="31" width="137" height="92" as="geometry" />
        </mxCell>
        <mxCell id="7W3f4tXXFIH6tPftR0kk-49" style="shape=tableRow;horizontal=0;startSize=0;swimlaneHead=0;swimlaneBody=0;fillColor=none;collapsible=0;dropTarget=0;points=[[0,0.5],[1,0.5]];portConstraint=eastwest;top=0;left=0;right=0;bottom=0;" vertex="1" parent="7W3f4tXXFIH6tPftR0kk-48">
          <mxGeometry y="25" width="137" height="22" as="geometry" />
        </mxCell>
        <mxCell id="7W3f4tXXFIH6tPftR0kk-50" value="int" style="shape=partialRectangle;connectable=0;fillColor=none;top=0;left=0;bottom=0;right=0;align=left;spacingLeft=2;overflow=hidden;fontSize=11;" vertex="1" parent="7W3f4tXXFIH6tPftR0kk-49">
          <mxGeometry width="36" height="22" as="geometry">
            <mxRectangle width="36" height="22" as="alternateBounds" />
          </mxGeometry>
        </mxCell>
        <mxCell id="7W3f4tXXFIH6tPftR0kk-51" value="SupplierID" style="shape=partialRectangle;connectable=0;fillColor=none;top=0;left=0;bottom=0;right=0;align=left;spacingLeft=2;overflow=hidden;fontSize=11;" vertex="1" parent="7W3f4tXXFIH6tPftR0kk-49">
          <mxGeometry x="36" width="79" height="22" as="geometry">
            <mxRectangle width="79" height="22" as="alternateBounds" />
          </mxGeometry>
        </mxCell>
        <mxCell id="7W3f4tXXFIH6tPftR0kk-52" value="PK" style="shape=partialRectangle;connectable=0;fillColor=none;top=0;left=0;bottom=0;right=0;align=left;spacingLeft=2;overflow=hidden;fontSize=11;" vertex="1" parent="7W3f4tXXFIH6tPftR0kk-49">
          <mxGeometry x="115" width="22" height="22" as="geometry">
            <mxRectangle width="22" height="22" as="alternateBounds" />
          </mxGeometry>
        </mxCell>
        <mxCell id="7W3f4tXXFIH6tPftR0kk-53" style="shape=tableRow;horizontal=0;startSize=0;swimlaneHead=0;swimlaneBody=0;fillColor=none;collapsible=0;dropTarget=0;points=[[0,0.5],[1,0.5]];portConstraint=eastwest;top=0;left=0;right=0;bottom=0;" vertex="1" parent="7W3f4tXXFIH6tPftR0kk-48">
          <mxGeometry y="47" width="137" height="22" as="geometry" />
        </mxCell>
        <mxCell id="7W3f4tXXFIH6tPftR0kk-54" value="string" style="shape=partialRectangle;connectable=0;fillColor=none;top=0;left=0;bottom=0;right=0;align=left;spacingLeft=2;overflow=hidden;fontSize=11;" vertex="1" parent="7W3f4tXXFIH6tPftR0kk-53">
          <mxGeometry width="36" height="22" as="geometry">
            <mxRectangle width="36" height="22" as="alternateBounds" />
          </mxGeometry>
        </mxCell>
        <mxCell id="7W3f4tXXFIH6tPftR0kk-55" value="SupplierName" style="shape=partialRectangle;connectable=0;fillColor=none;top=0;left=0;bottom=0;right=0;align=left;spacingLeft=2;overflow=hidden;fontSize=11;" vertex="1" parent="7W3f4tXXFIH6tPftR0kk-53">
          <mxGeometry x="36" width="79" height="22" as="geometry">
            <mxRectangle width="79" height="22" as="alternateBounds" />
          </mxGeometry>
        </mxCell>
        <mxCell id="7W3f4tXXFIH6tPftR0kk-56" value="" style="shape=partialRectangle;connectable=0;fillColor=none;top=0;left=0;bottom=0;right=0;align=left;spacingLeft=2;overflow=hidden;fontSize=11;" vertex="1" parent="7W3f4tXXFIH6tPftR0kk-53">
          <mxGeometry x="115" width="22" height="22" as="geometry">
            <mxRectangle width="22" height="22" as="alternateBounds" />
          </mxGeometry>
        </mxCell>
        <mxCell id="7W3f4tXXFIH6tPftR0kk-57" style="shape=tableRow;horizontal=0;startSize=0;swimlaneHead=0;swimlaneBody=0;fillColor=none;collapsible=0;dropTarget=0;points=[[0,0.5],[1,0.5]];portConstraint=eastwest;top=0;left=0;right=0;bottom=0;" vertex="1" parent="7W3f4tXXFIH6tPftR0kk-48">
          <mxGeometry y="69" width="137" height="22" as="geometry" />
        </mxCell>
        <mxCell id="7W3f4tXXFIH6tPftR0kk-58" value="string" style="shape=partialRectangle;connectable=0;fillColor=none;top=0;left=0;bottom=0;right=0;align=left;spacingLeft=2;overflow=hidden;fontSize=11;" vertex="1" parent="7W3f4tXXFIH6tPftR0kk-57">
          <mxGeometry width="36" height="22" as="geometry">
            <mxRectangle width="36" height="22" as="alternateBounds" />
          </mxGeometry>
        </mxCell>
        <mxCell id="7W3f4tXXFIH6tPftR0kk-59" value="ContactInfo" style="shape=partialRectangle;connectable=0;fillColor=none;top=0;left=0;bottom=0;right=0;align=left;spacingLeft=2;overflow=hidden;fontSize=11;" vertex="1" parent="7W3f4tXXFIH6tPftR0kk-57">
          <mxGeometry x="36" width="79" height="22" as="geometry">
            <mxRectangle width="79" height="22" as="alternateBounds" />
          </mxGeometry>
        </mxCell>
        <mxCell id="7W3f4tXXFIH6tPftR0kk-60" value="" style="shape=partialRectangle;connectable=0;fillColor=none;top=0;left=0;bottom=0;right=0;align=left;spacingLeft=2;overflow=hidden;fontSize=11;" vertex="1" parent="7W3f4tXXFIH6tPftR0kk-57">
          <mxGeometry x="115" width="22" height="22" as="geometry">
            <mxRectangle width="22" height="22" as="alternateBounds" />
          </mxGeometry>
        </mxCell>
        <mxCell id="7W3f4tXXFIH6tPftR0kk-61" value="SUPPLY_ORDER" style="shape=table;startSize=25;container=1;collapsible=0;childLayout=tableLayout;fixedRows=1;rowLines=1;fontStyle=1;align=center;resizeLast=1;" vertex="1" parent="1">
          <mxGeometry x="530" y="235" width="178" height="205" as="geometry" />
        </mxCell>
        <mxCell id="7W3f4tXXFIH6tPftR0kk-62" style="shape=tableRow;horizontal=0;startSize=0;swimlaneHead=0;swimlaneBody=0;fillColor=none;collapsible=0;dropTarget=0;points=[[0,0.5],[1,0.5]];portConstraint=eastwest;top=0;left=0;right=0;bottom=0;" vertex="1" parent="7W3f4tXXFIH6tPftR0kk-61">
          <mxGeometry y="25" width="178" height="22" as="geometry" />
        </mxCell>
        <mxCell id="7W3f4tXXFIH6tPftR0kk-63" value="int" style="shape=partialRectangle;connectable=0;fillColor=none;top=0;left=0;bottom=0;right=0;align=left;spacingLeft=2;overflow=hidden;fontSize=11;" vertex="1" parent="7W3f4tXXFIH6tPftR0kk-62">
          <mxGeometry width="36" height="22" as="geometry">
            <mxRectangle width="36" height="22" as="alternateBounds" />
          </mxGeometry>
        </mxCell>
        <mxCell id="7W3f4tXXFIH6tPftR0kk-64" value="SupplyOrderID" style="shape=partialRectangle;connectable=0;fillColor=none;top=0;left=0;bottom=0;right=0;align=left;spacingLeft=2;overflow=hidden;fontSize=11;" vertex="1" parent="7W3f4tXXFIH6tPftR0kk-62">
          <mxGeometry x="36" width="120" height="22" as="geometry">
            <mxRectangle width="120" height="22" as="alternateBounds" />
          </mxGeometry>
        </mxCell>
        <mxCell id="7W3f4tXXFIH6tPftR0kk-65" value="PK" style="shape=partialRectangle;connectable=0;fillColor=none;top=0;left=0;bottom=0;right=0;align=left;spacingLeft=2;overflow=hidden;fontSize=11;" vertex="1" parent="7W3f4tXXFIH6tPftR0kk-62">
          <mxGeometry x="156" width="22" height="22" as="geometry">
            <mxRectangle width="22" height="22" as="alternateBounds" />
          </mxGeometry>
        </mxCell>
        <mxCell id="7W3f4tXXFIH6tPftR0kk-66" style="shape=tableRow;horizontal=0;startSize=0;swimlaneHead=0;swimlaneBody=0;fillColor=none;collapsible=0;dropTarget=0;points=[[0,0.5],[1,0.5]];portConstraint=eastwest;top=0;left=0;right=0;bottom=0;" vertex="1" parent="7W3f4tXXFIH6tPftR0kk-61">
          <mxGeometry y="47" width="178" height="22" as="geometry" />
        </mxCell>
        <mxCell id="7W3f4tXXFIH6tPftR0kk-67" value="int" style="shape=partialRectangle;connectable=0;fillColor=none;top=0;left=0;bottom=0;right=0;align=left;spacingLeft=2;overflow=hidden;fontSize=11;" vertex="1" parent="7W3f4tXXFIH6tPftR0kk-66">
          <mxGeometry width="36" height="22" as="geometry">
            <mxRectangle width="36" height="22" as="alternateBounds" />
          </mxGeometry>
        </mxCell>
        <mxCell id="7W3f4tXXFIH6tPftR0kk-68" value="SupplierID" style="shape=partialRectangle;connectable=0;fillColor=none;top=0;left=0;bottom=0;right=0;align=left;spacingLeft=2;overflow=hidden;fontSize=11;" vertex="1" parent="7W3f4tXXFIH6tPftR0kk-66">
          <mxGeometry x="36" width="120" height="22" as="geometry">
            <mxRectangle width="120" height="22" as="alternateBounds" />
          </mxGeometry>
        </mxCell>
        <mxCell id="7W3f4tXXFIH6tPftR0kk-69" value="FK" style="shape=partialRectangle;connectable=0;fillColor=none;top=0;left=0;bottom=0;right=0;align=left;spacingLeft=2;overflow=hidden;fontSize=11;" vertex="1" parent="7W3f4tXXFIH6tPftR0kk-66">
          <mxGeometry x="156" width="22" height="22" as="geometry">
            <mxRectangle width="22" height="22" as="alternateBounds" />
          </mxGeometry>
        </mxCell>
        <mxCell id="7W3f4tXXFIH6tPftR0kk-70" style="shape=tableRow;horizontal=0;startSize=0;swimlaneHead=0;swimlaneBody=0;fillColor=none;collapsible=0;dropTarget=0;points=[[0,0.5],[1,0.5]];portConstraint=eastwest;top=0;left=0;right=0;bottom=0;" vertex="1" parent="7W3f4tXXFIH6tPftR0kk-61">
          <mxGeometry y="69" width="178" height="22" as="geometry" />
        </mxCell>
        <mxCell id="7W3f4tXXFIH6tPftR0kk-71" value="int" style="shape=partialRectangle;connectable=0;fillColor=none;top=0;left=0;bottom=0;right=0;align=left;spacingLeft=2;overflow=hidden;fontSize=11;" vertex="1" parent="7W3f4tXXFIH6tPftR0kk-70">
          <mxGeometry width="36" height="22" as="geometry">
            <mxRectangle width="36" height="22" as="alternateBounds" />
          </mxGeometry>
        </mxCell>
        <mxCell id="7W3f4tXXFIH6tPftR0kk-72" value="WineID" style="shape=partialRectangle;connectable=0;fillColor=none;top=0;left=0;bottom=0;right=0;align=left;spacingLeft=2;overflow=hidden;fontSize=11;" vertex="1" parent="7W3f4tXXFIH6tPftR0kk-70">
          <mxGeometry x="36" width="120" height="22" as="geometry">
            <mxRectangle width="120" height="22" as="alternateBounds" />
          </mxGeometry>
        </mxCell>
        <mxCell id="7W3f4tXXFIH6tPftR0kk-73" value="FK" style="shape=partialRectangle;connectable=0;fillColor=none;top=0;left=0;bottom=0;right=0;align=left;spacingLeft=2;overflow=hidden;fontSize=11;" vertex="1" parent="7W3f4tXXFIH6tPftR0kk-70">
          <mxGeometry x="156" width="22" height="22" as="geometry">
            <mxRectangle width="22" height="22" as="alternateBounds" />
          </mxGeometry>
        </mxCell>
        <mxCell id="7W3f4tXXFIH6tPftR0kk-74" style="shape=tableRow;horizontal=0;startSize=0;swimlaneHead=0;swimlaneBody=0;fillColor=none;collapsible=0;dropTarget=0;points=[[0,0.5],[1,0.5]];portConstraint=eastwest;top=0;left=0;right=0;bottom=0;" vertex="1" parent="7W3f4tXXFIH6tPftR0kk-61">
          <mxGeometry y="91" width="178" height="22" as="geometry" />
        </mxCell>
        <mxCell id="7W3f4tXXFIH6tPftR0kk-75" value="int" style="shape=partialRectangle;connectable=0;fillColor=none;top=0;left=0;bottom=0;right=0;align=left;spacingLeft=2;overflow=hidden;fontSize=11;" vertex="1" parent="7W3f4tXXFIH6tPftR0kk-74">
          <mxGeometry width="36" height="22" as="geometry">
            <mxRectangle width="36" height="22" as="alternateBounds" />
          </mxGeometry>
        </mxCell>
        <mxCell id="7W3f4tXXFIH6tPftR0kk-76" value="QuantityOrdered" style="shape=partialRectangle;connectable=0;fillColor=none;top=0;left=0;bottom=0;right=0;align=left;spacingLeft=2;overflow=hidden;fontSize=11;" vertex="1" parent="7W3f4tXXFIH6tPftR0kk-74">
          <mxGeometry x="36" width="120" height="22" as="geometry">
            <mxRectangle width="120" height="22" as="alternateBounds" />
          </mxGeometry>
        </mxCell>
        <mxCell id="7W3f4tXXFIH6tPftR0kk-77" value="" style="shape=partialRectangle;connectable=0;fillColor=none;top=0;left=0;bottom=0;right=0;align=left;spacingLeft=2;overflow=hidden;fontSize=11;" vertex="1" parent="7W3f4tXXFIH6tPftR0kk-74">
          <mxGeometry x="156" width="22" height="22" as="geometry">
            <mxRectangle width="22" height="22" as="alternateBounds" />
          </mxGeometry>
        </mxCell>
        <mxCell id="7W3f4tXXFIH6tPftR0kk-78" style="shape=tableRow;horizontal=0;startSize=0;swimlaneHead=0;swimlaneBody=0;fillColor=none;collapsible=0;dropTarget=0;points=[[0,0.5],[1,0.5]];portConstraint=eastwest;top=0;left=0;right=0;bottom=0;" vertex="1" parent="7W3f4tXXFIH6tPftR0kk-61">
          <mxGeometry y="113" width="178" height="22" as="geometry" />
        </mxCell>
        <mxCell id="7W3f4tXXFIH6tPftR0kk-79" value="date" style="shape=partialRectangle;connectable=0;fillColor=none;top=0;left=0;bottom=0;right=0;align=left;spacingLeft=2;overflow=hidden;fontSize=11;" vertex="1" parent="7W3f4tXXFIH6tPftR0kk-78">
          <mxGeometry width="36" height="22" as="geometry">
            <mxRectangle width="36" height="22" as="alternateBounds" />
          </mxGeometry>
        </mxCell>
        <mxCell id="7W3f4tXXFIH6tPftR0kk-80" value="OrderDate" style="shape=partialRectangle;connectable=0;fillColor=none;top=0;left=0;bottom=0;right=0;align=left;spacingLeft=2;overflow=hidden;fontSize=11;" vertex="1" parent="7W3f4tXXFIH6tPftR0kk-78">
          <mxGeometry x="36" width="120" height="22" as="geometry">
            <mxRectangle width="120" height="22" as="alternateBounds" />
          </mxGeometry>
        </mxCell>
        <mxCell id="7W3f4tXXFIH6tPftR0kk-81" value="" style="shape=partialRectangle;connectable=0;fillColor=none;top=0;left=0;bottom=0;right=0;align=left;spacingLeft=2;overflow=hidden;fontSize=11;" vertex="1" parent="7W3f4tXXFIH6tPftR0kk-78">
          <mxGeometry x="156" width="22" height="22" as="geometry">
            <mxRectangle width="22" height="22" as="alternateBounds" />
          </mxGeometry>
        </mxCell>
        <mxCell id="7W3f4tXXFIH6tPftR0kk-82" style="shape=tableRow;horizontal=0;startSize=0;swimlaneHead=0;swimlaneBody=0;fillColor=none;collapsible=0;dropTarget=0;points=[[0,0.5],[1,0.5]];portConstraint=eastwest;top=0;left=0;right=0;bottom=0;" vertex="1" parent="7W3f4tXXFIH6tPftR0kk-61">
          <mxGeometry y="135" width="178" height="22" as="geometry" />
        </mxCell>
        <mxCell id="7W3f4tXXFIH6tPftR0kk-83" value="date" style="shape=partialRectangle;connectable=0;fillColor=none;top=0;left=0;bottom=0;right=0;align=left;spacingLeft=2;overflow=hidden;fontSize=11;" vertex="1" parent="7W3f4tXXFIH6tPftR0kk-82">
          <mxGeometry width="36" height="22" as="geometry">
            <mxRectangle width="36" height="22" as="alternateBounds" />
          </mxGeometry>
        </mxCell>
        <mxCell id="7W3f4tXXFIH6tPftR0kk-84" value="ExpectedDeliveryDate" style="shape=partialRectangle;connectable=0;fillColor=none;top=0;left=0;bottom=0;right=0;align=left;spacingLeft=2;overflow=hidden;fontSize=11;" vertex="1" parent="7W3f4tXXFIH6tPftR0kk-82">
          <mxGeometry x="36" width="120" height="22" as="geometry">
            <mxRectangle width="120" height="22" as="alternateBounds" />
          </mxGeometry>
        </mxCell>
        <mxCell id="7W3f4tXXFIH6tPftR0kk-85" value="" style="shape=partialRectangle;connectable=0;fillColor=none;top=0;left=0;bottom=0;right=0;align=left;spacingLeft=2;overflow=hidden;fontSize=11;" vertex="1" parent="7W3f4tXXFIH6tPftR0kk-82">
          <mxGeometry x="156" width="22" height="22" as="geometry">
            <mxRectangle width="22" height="22" as="alternateBounds" />
          </mxGeometry>
        </mxCell>
        <mxCell id="7W3f4tXXFIH6tPftR0kk-86" style="shape=tableRow;horizontal=0;startSize=0;swimlaneHead=0;swimlaneBody=0;fillColor=none;collapsible=0;dropTarget=0;points=[[0,0.5],[1,0.5]];portConstraint=eastwest;top=0;left=0;right=0;bottom=0;" vertex="1" parent="7W3f4tXXFIH6tPftR0kk-61">
          <mxGeometry y="157" width="178" height="22" as="geometry" />
        </mxCell>
        <mxCell id="7W3f4tXXFIH6tPftR0kk-87" value="date" style="shape=partialRectangle;connectable=0;fillColor=none;top=0;left=0;bottom=0;right=0;align=left;spacingLeft=2;overflow=hidden;fontSize=11;" vertex="1" parent="7W3f4tXXFIH6tPftR0kk-86">
          <mxGeometry width="36" height="22" as="geometry">
            <mxRectangle width="36" height="22" as="alternateBounds" />
          </mxGeometry>
        </mxCell>
        <mxCell id="7W3f4tXXFIH6tPftR0kk-88" value="ActualDeliveryDate" style="shape=partialRectangle;connectable=0;fillColor=none;top=0;left=0;bottom=0;right=0;align=left;spacingLeft=2;overflow=hidden;fontSize=11;" vertex="1" parent="7W3f4tXXFIH6tPftR0kk-86">
          <mxGeometry x="36" width="120" height="22" as="geometry">
            <mxRectangle width="120" height="22" as="alternateBounds" />
          </mxGeometry>
        </mxCell>
        <mxCell id="7W3f4tXXFIH6tPftR0kk-89" value="" style="shape=partialRectangle;connectable=0;fillColor=none;top=0;left=0;bottom=0;right=0;align=left;spacingLeft=2;overflow=hidden;fontSize=11;" vertex="1" parent="7W3f4tXXFIH6tPftR0kk-86">
          <mxGeometry x="156" width="22" height="22" as="geometry">
            <mxRectangle width="22" height="22" as="alternateBounds" />
          </mxGeometry>
        </mxCell>
        <mxCell id="7W3f4tXXFIH6tPftR0kk-90" style="shape=tableRow;horizontal=0;startSize=0;swimlaneHead=0;swimlaneBody=0;fillColor=none;collapsible=0;dropTarget=0;points=[[0,0.5],[1,0.5]];portConstraint=eastwest;top=0;left=0;right=0;bottom=0;" vertex="1" parent="7W3f4tXXFIH6tPftR0kk-61">
          <mxGeometry y="179" width="178" height="22" as="geometry" />
        </mxCell>
        <mxCell id="7W3f4tXXFIH6tPftR0kk-91" value="string" style="shape=partialRectangle;connectable=0;fillColor=none;top=0;left=0;bottom=0;right=0;align=left;spacingLeft=2;overflow=hidden;fontSize=11;" vertex="1" parent="7W3f4tXXFIH6tPftR0kk-90">
          <mxGeometry width="36" height="22" as="geometry">
            <mxRectangle width="36" height="22" as="alternateBounds" />
          </mxGeometry>
        </mxCell>
        <mxCell id="7W3f4tXXFIH6tPftR0kk-92" value="OrderStatus" style="shape=partialRectangle;connectable=0;fillColor=none;top=0;left=0;bottom=0;right=0;align=left;spacingLeft=2;overflow=hidden;fontSize=11;" vertex="1" parent="7W3f4tXXFIH6tPftR0kk-90">
          <mxGeometry x="36" width="120" height="22" as="geometry">
            <mxRectangle width="120" height="22" as="alternateBounds" />
          </mxGeometry>
        </mxCell>
        <mxCell id="7W3f4tXXFIH6tPftR0kk-93" value="" style="shape=partialRectangle;connectable=0;fillColor=none;top=0;left=0;bottom=0;right=0;align=left;spacingLeft=2;overflow=hidden;fontSize=11;" vertex="1" parent="7W3f4tXXFIH6tPftR0kk-90">
          <mxGeometry x="156" width="22" height="22" as="geometry">
            <mxRectangle width="22" height="22" as="alternateBounds" />
          </mxGeometry>
        </mxCell>
        <mxCell id="7W3f4tXXFIH6tPftR0kk-94" value="WINE" style="shape=table;startSize=25;container=1;collapsible=0;childLayout=tableLayout;fixedRows=1;rowLines=1;fontStyle=1;align=center;resizeLast=1;" vertex="1" parent="1">
          <mxGeometry x="804" y="280" width="166" height="115" as="geometry" />
        </mxCell>
        <mxCell id="7W3f4tXXFIH6tPftR0kk-95" style="shape=tableRow;horizontal=0;startSize=0;swimlaneHead=0;swimlaneBody=0;fillColor=none;collapsible=0;dropTarget=0;points=[[0,0.5],[1,0.5]];portConstraint=eastwest;top=0;left=0;right=0;bottom=0;" vertex="1" parent="7W3f4tXXFIH6tPftR0kk-94">
          <mxGeometry y="25" width="166" height="22" as="geometry" />
        </mxCell>
        <mxCell id="7W3f4tXXFIH6tPftR0kk-96" value="int" style="shape=partialRectangle;connectable=0;fillColor=none;top=0;left=0;bottom=0;right=0;align=left;spacingLeft=2;overflow=hidden;fontSize=11;" vertex="1" parent="7W3f4tXXFIH6tPftR0kk-95">
          <mxGeometry width="36" height="22" as="geometry">
            <mxRectangle width="36" height="22" as="alternateBounds" />
          </mxGeometry>
        </mxCell>
        <mxCell id="7W3f4tXXFIH6tPftR0kk-97" value="WineID" style="shape=partialRectangle;connectable=0;fillColor=none;top=0;left=0;bottom=0;right=0;align=left;spacingLeft=2;overflow=hidden;fontSize=11;" vertex="1" parent="7W3f4tXXFIH6tPftR0kk-95">
          <mxGeometry x="36" width="108" height="22" as="geometry">
            <mxRectangle width="108" height="22" as="alternateBounds" />
          </mxGeometry>
        </mxCell>
        <mxCell id="7W3f4tXXFIH6tPftR0kk-98" value="PK" style="shape=partialRectangle;connectable=0;fillColor=none;top=0;left=0;bottom=0;right=0;align=left;spacingLeft=2;overflow=hidden;fontSize=11;" vertex="1" parent="7W3f4tXXFIH6tPftR0kk-95">
          <mxGeometry x="144" width="22" height="22" as="geometry">
            <mxRectangle width="22" height="22" as="alternateBounds" />
          </mxGeometry>
        </mxCell>
        <mxCell id="7W3f4tXXFIH6tPftR0kk-99" style="shape=tableRow;horizontal=0;startSize=0;swimlaneHead=0;swimlaneBody=0;fillColor=none;collapsible=0;dropTarget=0;points=[[0,0.5],[1,0.5]];portConstraint=eastwest;top=0;left=0;right=0;bottom=0;" vertex="1" parent="7W3f4tXXFIH6tPftR0kk-94">
          <mxGeometry y="47" width="166" height="22" as="geometry" />
        </mxCell>
        <mxCell id="7W3f4tXXFIH6tPftR0kk-100" value="string" style="shape=partialRectangle;connectable=0;fillColor=none;top=0;left=0;bottom=0;right=0;align=left;spacingLeft=2;overflow=hidden;fontSize=11;" vertex="1" parent="7W3f4tXXFIH6tPftR0kk-99">
          <mxGeometry width="36" height="22" as="geometry">
            <mxRectangle width="36" height="22" as="alternateBounds" />
          </mxGeometry>
        </mxCell>
        <mxCell id="7W3f4tXXFIH6tPftR0kk-101" value="WineName" style="shape=partialRectangle;connectable=0;fillColor=none;top=0;left=0;bottom=0;right=0;align=left;spacingLeft=2;overflow=hidden;fontSize=11;" vertex="1" parent="7W3f4tXXFIH6tPftR0kk-99">
          <mxGeometry x="36" width="108" height="22" as="geometry">
            <mxRectangle width="108" height="22" as="alternateBounds" />
          </mxGeometry>
        </mxCell>
        <mxCell id="7W3f4tXXFIH6tPftR0kk-102" value="" style="shape=partialRectangle;connectable=0;fillColor=none;top=0;left=0;bottom=0;right=0;align=left;spacingLeft=2;overflow=hidden;fontSize=11;" vertex="1" parent="7W3f4tXXFIH6tPftR0kk-99">
          <mxGeometry x="144" width="22" height="22" as="geometry">
            <mxRectangle width="22" height="22" as="alternateBounds" />
          </mxGeometry>
        </mxCell>
        <mxCell id="7W3f4tXXFIH6tPftR0kk-103" style="shape=tableRow;horizontal=0;startSize=0;swimlaneHead=0;swimlaneBody=0;fillColor=none;collapsible=0;dropTarget=0;points=[[0,0.5],[1,0.5]];portConstraint=eastwest;top=0;left=0;right=0;bottom=0;" vertex="1" parent="7W3f4tXXFIH6tPftR0kk-94">
          <mxGeometry y="69" width="166" height="22" as="geometry" />
        </mxCell>
        <mxCell id="7W3f4tXXFIH6tPftR0kk-104" value="string" style="shape=partialRectangle;connectable=0;fillColor=none;top=0;left=0;bottom=0;right=0;align=left;spacingLeft=2;overflow=hidden;fontSize=11;" vertex="1" parent="7W3f4tXXFIH6tPftR0kk-103">
          <mxGeometry width="36" height="22" as="geometry">
            <mxRectangle width="36" height="22" as="alternateBounds" />
          </mxGeometry>
        </mxCell>
        <mxCell id="7W3f4tXXFIH6tPftR0kk-105" value="WineType" style="shape=partialRectangle;connectable=0;fillColor=none;top=0;left=0;bottom=0;right=0;align=left;spacingLeft=2;overflow=hidden;fontSize=11;" vertex="1" parent="7W3f4tXXFIH6tPftR0kk-103">
          <mxGeometry x="36" width="108" height="22" as="geometry">
            <mxRectangle width="108" height="22" as="alternateBounds" />
          </mxGeometry>
        </mxCell>
        <mxCell id="7W3f4tXXFIH6tPftR0kk-106" value="" style="shape=partialRectangle;connectable=0;fillColor=none;top=0;left=0;bottom=0;right=0;align=left;spacingLeft=2;overflow=hidden;fontSize=11;" vertex="1" parent="7W3f4tXXFIH6tPftR0kk-103">
          <mxGeometry x="144" width="22" height="22" as="geometry">
            <mxRectangle width="22" height="22" as="alternateBounds" />
          </mxGeometry>
        </mxCell>
        <mxCell id="7W3f4tXXFIH6tPftR0kk-107" style="shape=tableRow;horizontal=0;startSize=0;swimlaneHead=0;swimlaneBody=0;fillColor=none;collapsible=0;dropTarget=0;points=[[0,0.5],[1,0.5]];portConstraint=eastwest;top=0;left=0;right=0;bottom=0;" vertex="1" parent="7W3f4tXXFIH6tPftR0kk-94">
          <mxGeometry y="91" width="166" height="22" as="geometry" />
        </mxCell>
        <mxCell id="7W3f4tXXFIH6tPftR0kk-108" value="int" style="shape=partialRectangle;connectable=0;fillColor=none;top=0;left=0;bottom=0;right=0;align=left;spacingLeft=2;overflow=hidden;fontSize=11;" vertex="1" parent="7W3f4tXXFIH6tPftR0kk-107">
          <mxGeometry width="36" height="22" as="geometry">
            <mxRectangle width="36" height="22" as="alternateBounds" />
          </mxGeometry>
        </mxCell>
        <mxCell id="7W3f4tXXFIH6tPftR0kk-109" value="ProductionQuantity" style="shape=partialRectangle;connectable=0;fillColor=none;top=0;left=0;bottom=0;right=0;align=left;spacingLeft=2;overflow=hidden;fontSize=11;" vertex="1" parent="7W3f4tXXFIH6tPftR0kk-107">
          <mxGeometry x="36" width="108" height="22" as="geometry">
            <mxRectangle width="108" height="22" as="alternateBounds" />
          </mxGeometry>
        </mxCell>
        <mxCell id="7W3f4tXXFIH6tPftR0kk-110" value="" style="shape=partialRectangle;connectable=0;fillColor=none;top=0;left=0;bottom=0;right=0;align=left;spacingLeft=2;overflow=hidden;fontSize=11;" vertex="1" parent="7W3f4tXXFIH6tPftR0kk-107">
          <mxGeometry x="144" width="22" height="22" as="geometry">
            <mxRectangle width="22" height="22" as="alternateBounds" />
          </mxGeometry>
        </mxCell>
        <mxCell id="7W3f4tXXFIH6tPftR0kk-111" value="INVENTORY" style="shape=table;startSize=25;container=1;collapsible=0;childLayout=tableLayout;fixedRows=1;rowLines=1;fontStyle=1;align=center;resizeLast=1;" vertex="1" parent="1">
          <mxGeometry x="601" y="539" width="132" height="115" as="geometry" />
        </mxCell>
        <mxCell id="7W3f4tXXFIH6tPftR0kk-112" style="shape=tableRow;horizontal=0;startSize=0;swimlaneHead=0;swimlaneBody=0;fillColor=none;collapsible=0;dropTarget=0;points=[[0,0.5],[1,0.5]];portConstraint=eastwest;top=0;left=0;right=0;bottom=0;" vertex="1" parent="7W3f4tXXFIH6tPftR0kk-111">
          <mxGeometry y="25" width="132" height="22" as="geometry" />
        </mxCell>
        <mxCell id="7W3f4tXXFIH6tPftR0kk-113" value="int" style="shape=partialRectangle;connectable=0;fillColor=none;top=0;left=0;bottom=0;right=0;align=left;spacingLeft=2;overflow=hidden;fontSize=11;" vertex="1" parent="7W3f4tXXFIH6tPftR0kk-112">
          <mxGeometry width="24" height="22" as="geometry">
            <mxRectangle width="24" height="22" as="alternateBounds" />
          </mxGeometry>
        </mxCell>
        <mxCell id="7W3f4tXXFIH6tPftR0kk-114" value="InventoryID" style="shape=partialRectangle;connectable=0;fillColor=none;top=0;left=0;bottom=0;right=0;align=left;spacingLeft=2;overflow=hidden;fontSize=11;" vertex="1" parent="7W3f4tXXFIH6tPftR0kk-112">
          <mxGeometry x="24" width="86" height="22" as="geometry">
            <mxRectangle width="86" height="22" as="alternateBounds" />
          </mxGeometry>
        </mxCell>
        <mxCell id="7W3f4tXXFIH6tPftR0kk-115" value="PK" style="shape=partialRectangle;connectable=0;fillColor=none;top=0;left=0;bottom=0;right=0;align=left;spacingLeft=2;overflow=hidden;fontSize=11;" vertex="1" parent="7W3f4tXXFIH6tPftR0kk-112">
          <mxGeometry x="110" width="22" height="22" as="geometry">
            <mxRectangle width="22" height="22" as="alternateBounds" />
          </mxGeometry>
        </mxCell>
        <mxCell id="7W3f4tXXFIH6tPftR0kk-116" style="shape=tableRow;horizontal=0;startSize=0;swimlaneHead=0;swimlaneBody=0;fillColor=none;collapsible=0;dropTarget=0;points=[[0,0.5],[1,0.5]];portConstraint=eastwest;top=0;left=0;right=0;bottom=0;" vertex="1" parent="7W3f4tXXFIH6tPftR0kk-111">
          <mxGeometry y="47" width="132" height="22" as="geometry" />
        </mxCell>
        <mxCell id="7W3f4tXXFIH6tPftR0kk-117" value="int" style="shape=partialRectangle;connectable=0;fillColor=none;top=0;left=0;bottom=0;right=0;align=left;spacingLeft=2;overflow=hidden;fontSize=11;" vertex="1" parent="7W3f4tXXFIH6tPftR0kk-116">
          <mxGeometry width="24" height="22" as="geometry">
            <mxRectangle width="24" height="22" as="alternateBounds" />
          </mxGeometry>
        </mxCell>
        <mxCell id="7W3f4tXXFIH6tPftR0kk-118" value="WineID" style="shape=partialRectangle;connectable=0;fillColor=none;top=0;left=0;bottom=0;right=0;align=left;spacingLeft=2;overflow=hidden;fontSize=11;" vertex="1" parent="7W3f4tXXFIH6tPftR0kk-116">
          <mxGeometry x="24" width="86" height="22" as="geometry">
            <mxRectangle width="86" height="22" as="alternateBounds" />
          </mxGeometry>
        </mxCell>
        <mxCell id="7W3f4tXXFIH6tPftR0kk-119" value="FK" style="shape=partialRectangle;connectable=0;fillColor=none;top=0;left=0;bottom=0;right=0;align=left;spacingLeft=2;overflow=hidden;fontSize=11;" vertex="1" parent="7W3f4tXXFIH6tPftR0kk-116">
          <mxGeometry x="110" width="22" height="22" as="geometry">
            <mxRectangle width="22" height="22" as="alternateBounds" />
          </mxGeometry>
        </mxCell>
        <mxCell id="7W3f4tXXFIH6tPftR0kk-120" style="shape=tableRow;horizontal=0;startSize=0;swimlaneHead=0;swimlaneBody=0;fillColor=none;collapsible=0;dropTarget=0;points=[[0,0.5],[1,0.5]];portConstraint=eastwest;top=0;left=0;right=0;bottom=0;" vertex="1" parent="7W3f4tXXFIH6tPftR0kk-111">
          <mxGeometry y="69" width="132" height="22" as="geometry" />
        </mxCell>
        <mxCell id="7W3f4tXXFIH6tPftR0kk-121" value="int" style="shape=partialRectangle;connectable=0;fillColor=none;top=0;left=0;bottom=0;right=0;align=left;spacingLeft=2;overflow=hidden;fontSize=11;" vertex="1" parent="7W3f4tXXFIH6tPftR0kk-120">
          <mxGeometry width="24" height="22" as="geometry">
            <mxRectangle width="24" height="22" as="alternateBounds" />
          </mxGeometry>
        </mxCell>
        <mxCell id="7W3f4tXXFIH6tPftR0kk-122" value="StockQuantity" style="shape=partialRectangle;connectable=0;fillColor=none;top=0;left=0;bottom=0;right=0;align=left;spacingLeft=2;overflow=hidden;fontSize=11;" vertex="1" parent="7W3f4tXXFIH6tPftR0kk-120">
          <mxGeometry x="24" width="86" height="22" as="geometry">
            <mxRectangle width="86" height="22" as="alternateBounds" />
          </mxGeometry>
        </mxCell>
        <mxCell id="7W3f4tXXFIH6tPftR0kk-123" value="" style="shape=partialRectangle;connectable=0;fillColor=none;top=0;left=0;bottom=0;right=0;align=left;spacingLeft=2;overflow=hidden;fontSize=11;" vertex="1" parent="7W3f4tXXFIH6tPftR0kk-120">
          <mxGeometry x="110" width="22" height="22" as="geometry">
            <mxRectangle width="22" height="22" as="alternateBounds" />
          </mxGeometry>
        </mxCell>
        <mxCell id="7W3f4tXXFIH6tPftR0kk-124" style="shape=tableRow;horizontal=0;startSize=0;swimlaneHead=0;swimlaneBody=0;fillColor=none;collapsible=0;dropTarget=0;points=[[0,0.5],[1,0.5]];portConstraint=eastwest;top=0;left=0;right=0;bottom=0;" vertex="1" parent="7W3f4tXXFIH6tPftR0kk-111">
          <mxGeometry y="91" width="132" height="22" as="geometry" />
        </mxCell>
        <mxCell id="7W3f4tXXFIH6tPftR0kk-125" value="date" style="shape=partialRectangle;connectable=0;fillColor=none;top=0;left=0;bottom=0;right=0;align=left;spacingLeft=2;overflow=hidden;fontSize=11;" vertex="1" parent="7W3f4tXXFIH6tPftR0kk-124">
          <mxGeometry width="24" height="22" as="geometry">
            <mxRectangle width="24" height="22" as="alternateBounds" />
          </mxGeometry>
        </mxCell>
        <mxCell id="7W3f4tXXFIH6tPftR0kk-126" value="LastUpdated" style="shape=partialRectangle;connectable=0;fillColor=none;top=0;left=0;bottom=0;right=0;align=left;spacingLeft=2;overflow=hidden;fontSize=11;" vertex="1" parent="7W3f4tXXFIH6tPftR0kk-124">
          <mxGeometry x="24" width="86" height="22" as="geometry">
            <mxRectangle width="86" height="22" as="alternateBounds" />
          </mxGeometry>
        </mxCell>
        <mxCell id="7W3f4tXXFIH6tPftR0kk-127" value="" style="shape=partialRectangle;connectable=0;fillColor=none;top=0;left=0;bottom=0;right=0;align=left;spacingLeft=2;overflow=hidden;fontSize=11;" vertex="1" parent="7W3f4tXXFIH6tPftR0kk-124">
          <mxGeometry x="110" width="22" height="22" as="geometry">
            <mxRectangle width="22" height="22" as="alternateBounds" />
          </mxGeometry>
        </mxCell>
        <mxCell id="7W3f4tXXFIH6tPftR0kk-128" value="SALES_TRANSACTION" style="shape=table;startSize=25;container=1;collapsible=0;childLayout=tableLayout;fixedRows=1;rowLines=1;fontStyle=1;align=center;resizeLast=1;" vertex="1" parent="1">
          <mxGeometry x="859" y="754" width="151" height="182" as="geometry" />
        </mxCell>
        <mxCell id="7W3f4tXXFIH6tPftR0kk-129" style="shape=tableRow;horizontal=0;startSize=0;swimlaneHead=0;swimlaneBody=0;fillColor=none;collapsible=0;dropTarget=0;points=[[0,0.5],[1,0.5]];portConstraint=eastwest;top=0;left=0;right=0;bottom=0;" vertex="1" parent="7W3f4tXXFIH6tPftR0kk-128">
          <mxGeometry y="25" width="151" height="22" as="geometry" />
        </mxCell>
        <mxCell id="7W3f4tXXFIH6tPftR0kk-130" value="int" style="shape=partialRectangle;connectable=0;fillColor=none;top=0;left=0;bottom=0;right=0;align=left;spacingLeft=2;overflow=hidden;fontSize=11;" vertex="1" parent="7W3f4tXXFIH6tPftR0kk-129">
          <mxGeometry width="42" height="22" as="geometry">
            <mxRectangle width="42" height="22" as="alternateBounds" />
          </mxGeometry>
        </mxCell>
        <mxCell id="7W3f4tXXFIH6tPftR0kk-131" value="TransactionID" style="shape=partialRectangle;connectable=0;fillColor=none;top=0;left=0;bottom=0;right=0;align=left;spacingLeft=2;overflow=hidden;fontSize=11;" vertex="1" parent="7W3f4tXXFIH6tPftR0kk-129">
          <mxGeometry x="42" width="87" height="22" as="geometry">
            <mxRectangle width="87" height="22" as="alternateBounds" />
          </mxGeometry>
        </mxCell>
        <mxCell id="7W3f4tXXFIH6tPftR0kk-132" value="PK" style="shape=partialRectangle;connectable=0;fillColor=none;top=0;left=0;bottom=0;right=0;align=left;spacingLeft=2;overflow=hidden;fontSize=11;" vertex="1" parent="7W3f4tXXFIH6tPftR0kk-129">
          <mxGeometry x="129" width="22" height="22" as="geometry">
            <mxRectangle width="22" height="22" as="alternateBounds" />
          </mxGeometry>
        </mxCell>
        <mxCell id="7W3f4tXXFIH6tPftR0kk-133" style="shape=tableRow;horizontal=0;startSize=0;swimlaneHead=0;swimlaneBody=0;fillColor=none;collapsible=0;dropTarget=0;points=[[0,0.5],[1,0.5]];portConstraint=eastwest;top=0;left=0;right=0;bottom=0;" vertex="1" parent="7W3f4tXXFIH6tPftR0kk-128">
          <mxGeometry y="47" width="151" height="22" as="geometry" />
        </mxCell>
        <mxCell id="7W3f4tXXFIH6tPftR0kk-134" value="int" style="shape=partialRectangle;connectable=0;fillColor=none;top=0;left=0;bottom=0;right=0;align=left;spacingLeft=2;overflow=hidden;fontSize=11;" vertex="1" parent="7W3f4tXXFIH6tPftR0kk-133">
          <mxGeometry width="42" height="22" as="geometry">
            <mxRectangle width="42" height="22" as="alternateBounds" />
          </mxGeometry>
        </mxCell>
        <mxCell id="7W3f4tXXFIH6tPftR0kk-135" value="DistributorID" style="shape=partialRectangle;connectable=0;fillColor=none;top=0;left=0;bottom=0;right=0;align=left;spacingLeft=2;overflow=hidden;fontSize=11;" vertex="1" parent="7W3f4tXXFIH6tPftR0kk-133">
          <mxGeometry x="42" width="87" height="22" as="geometry">
            <mxRectangle width="87" height="22" as="alternateBounds" />
          </mxGeometry>
        </mxCell>
        <mxCell id="7W3f4tXXFIH6tPftR0kk-136" value="FK" style="shape=partialRectangle;connectable=0;fillColor=none;top=0;left=0;bottom=0;right=0;align=left;spacingLeft=2;overflow=hidden;fontSize=11;" vertex="1" parent="7W3f4tXXFIH6tPftR0kk-133">
          <mxGeometry x="129" width="22" height="22" as="geometry">
            <mxRectangle width="22" height="22" as="alternateBounds" />
          </mxGeometry>
        </mxCell>
        <mxCell id="7W3f4tXXFIH6tPftR0kk-137" style="shape=tableRow;horizontal=0;startSize=0;swimlaneHead=0;swimlaneBody=0;fillColor=none;collapsible=0;dropTarget=0;points=[[0,0.5],[1,0.5]];portConstraint=eastwest;top=0;left=0;right=0;bottom=0;" vertex="1" parent="7W3f4tXXFIH6tPftR0kk-128">
          <mxGeometry y="69" width="151" height="22" as="geometry" />
        </mxCell>
        <mxCell id="7W3f4tXXFIH6tPftR0kk-138" value="int" style="shape=partialRectangle;connectable=0;fillColor=none;top=0;left=0;bottom=0;right=0;align=left;spacingLeft=2;overflow=hidden;fontSize=11;" vertex="1" parent="7W3f4tXXFIH6tPftR0kk-137">
          <mxGeometry width="42" height="22" as="geometry">
            <mxRectangle width="42" height="22" as="alternateBounds" />
          </mxGeometry>
        </mxCell>
        <mxCell id="7W3f4tXXFIH6tPftR0kk-139" value="WineID" style="shape=partialRectangle;connectable=0;fillColor=none;top=0;left=0;bottom=0;right=0;align=left;spacingLeft=2;overflow=hidden;fontSize=11;" vertex="1" parent="7W3f4tXXFIH6tPftR0kk-137">
          <mxGeometry x="42" width="87" height="22" as="geometry">
            <mxRectangle width="87" height="22" as="alternateBounds" />
          </mxGeometry>
        </mxCell>
        <mxCell id="7W3f4tXXFIH6tPftR0kk-140" value="FK" style="shape=partialRectangle;connectable=0;fillColor=none;top=0;left=0;bottom=0;right=0;align=left;spacingLeft=2;overflow=hidden;fontSize=11;" vertex="1" parent="7W3f4tXXFIH6tPftR0kk-137">
          <mxGeometry x="129" width="22" height="22" as="geometry">
            <mxRectangle width="22" height="22" as="alternateBounds" />
          </mxGeometry>
        </mxCell>
        <mxCell id="7W3f4tXXFIH6tPftR0kk-141" style="shape=tableRow;horizontal=0;startSize=0;swimlaneHead=0;swimlaneBody=0;fillColor=none;collapsible=0;dropTarget=0;points=[[0,0.5],[1,0.5]];portConstraint=eastwest;top=0;left=0;right=0;bottom=0;" vertex="1" parent="7W3f4tXXFIH6tPftR0kk-128">
          <mxGeometry y="91" width="151" height="22" as="geometry" />
        </mxCell>
        <mxCell id="7W3f4tXXFIH6tPftR0kk-142" value="int" style="shape=partialRectangle;connectable=0;fillColor=none;top=0;left=0;bottom=0;right=0;align=left;spacingLeft=2;overflow=hidden;fontSize=11;" vertex="1" parent="7W3f4tXXFIH6tPftR0kk-141">
          <mxGeometry width="42" height="22" as="geometry">
            <mxRectangle width="42" height="22" as="alternateBounds" />
          </mxGeometry>
        </mxCell>
        <mxCell id="7W3f4tXXFIH6tPftR0kk-143" value="QuantitySold" style="shape=partialRectangle;connectable=0;fillColor=none;top=0;left=0;bottom=0;right=0;align=left;spacingLeft=2;overflow=hidden;fontSize=11;" vertex="1" parent="7W3f4tXXFIH6tPftR0kk-141">
          <mxGeometry x="42" width="87" height="22" as="geometry">
            <mxRectangle width="87" height="22" as="alternateBounds" />
          </mxGeometry>
        </mxCell>
        <mxCell id="7W3f4tXXFIH6tPftR0kk-144" value="" style="shape=partialRectangle;connectable=0;fillColor=none;top=0;left=0;bottom=0;right=0;align=left;spacingLeft=2;overflow=hidden;fontSize=11;" vertex="1" parent="7W3f4tXXFIH6tPftR0kk-141">
          <mxGeometry x="129" width="22" height="22" as="geometry">
            <mxRectangle width="22" height="22" as="alternateBounds" />
          </mxGeometry>
        </mxCell>
        <mxCell id="7W3f4tXXFIH6tPftR0kk-145" style="shape=tableRow;horizontal=0;startSize=0;swimlaneHead=0;swimlaneBody=0;fillColor=none;collapsible=0;dropTarget=0;points=[[0,0.5],[1,0.5]];portConstraint=eastwest;top=0;left=0;right=0;bottom=0;" vertex="1" parent="7W3f4tXXFIH6tPftR0kk-128">
          <mxGeometry y="113" width="151" height="22" as="geometry" />
        </mxCell>
        <mxCell id="7W3f4tXXFIH6tPftR0kk-146" value="decimal" style="shape=partialRectangle;connectable=0;fillColor=none;top=0;left=0;bottom=0;right=0;align=left;spacingLeft=2;overflow=hidden;fontSize=11;" vertex="1" parent="7W3f4tXXFIH6tPftR0kk-145">
          <mxGeometry width="42" height="22" as="geometry">
            <mxRectangle width="42" height="22" as="alternateBounds" />
          </mxGeometry>
        </mxCell>
        <mxCell id="7W3f4tXXFIH6tPftR0kk-147" value="SalePrice" style="shape=partialRectangle;connectable=0;fillColor=none;top=0;left=0;bottom=0;right=0;align=left;spacingLeft=2;overflow=hidden;fontSize=11;" vertex="1" parent="7W3f4tXXFIH6tPftR0kk-145">
          <mxGeometry x="42" width="87" height="22" as="geometry">
            <mxRectangle width="87" height="22" as="alternateBounds" />
          </mxGeometry>
        </mxCell>
        <mxCell id="7W3f4tXXFIH6tPftR0kk-148" value="" style="shape=partialRectangle;connectable=0;fillColor=none;top=0;left=0;bottom=0;right=0;align=left;spacingLeft=2;overflow=hidden;fontSize=11;" vertex="1" parent="7W3f4tXXFIH6tPftR0kk-145">
          <mxGeometry x="129" width="22" height="22" as="geometry">
            <mxRectangle width="22" height="22" as="alternateBounds" />
          </mxGeometry>
        </mxCell>
        <mxCell id="7W3f4tXXFIH6tPftR0kk-149" style="shape=tableRow;horizontal=0;startSize=0;swimlaneHead=0;swimlaneBody=0;fillColor=none;collapsible=0;dropTarget=0;points=[[0,0.5],[1,0.5]];portConstraint=eastwest;top=0;left=0;right=0;bottom=0;" vertex="1" parent="7W3f4tXXFIH6tPftR0kk-128">
          <mxGeometry y="135" width="151" height="22" as="geometry" />
        </mxCell>
        <mxCell id="7W3f4tXXFIH6tPftR0kk-150" value="date" style="shape=partialRectangle;connectable=0;fillColor=none;top=0;left=0;bottom=0;right=0;align=left;spacingLeft=2;overflow=hidden;fontSize=11;" vertex="1" parent="7W3f4tXXFIH6tPftR0kk-149">
          <mxGeometry width="42" height="22" as="geometry">
            <mxRectangle width="42" height="22" as="alternateBounds" />
          </mxGeometry>
        </mxCell>
        <mxCell id="7W3f4tXXFIH6tPftR0kk-151" value="SaleDate" style="shape=partialRectangle;connectable=0;fillColor=none;top=0;left=0;bottom=0;right=0;align=left;spacingLeft=2;overflow=hidden;fontSize=11;" vertex="1" parent="7W3f4tXXFIH6tPftR0kk-149">
          <mxGeometry x="42" width="87" height="22" as="geometry">
            <mxRectangle width="87" height="22" as="alternateBounds" />
          </mxGeometry>
        </mxCell>
        <mxCell id="7W3f4tXXFIH6tPftR0kk-152" value="" style="shape=partialRectangle;connectable=0;fillColor=none;top=0;left=0;bottom=0;right=0;align=left;spacingLeft=2;overflow=hidden;fontSize=11;" vertex="1" parent="7W3f4tXXFIH6tPftR0kk-149">
          <mxGeometry x="129" width="22" height="22" as="geometry">
            <mxRectangle width="22" height="22" as="alternateBounds" />
          </mxGeometry>
        </mxCell>
        <mxCell id="7W3f4tXXFIH6tPftR0kk-153" style="shape=tableRow;horizontal=0;startSize=0;swimlaneHead=0;swimlaneBody=0;fillColor=none;collapsible=0;dropTarget=0;points=[[0,0.5],[1,0.5]];portConstraint=eastwest;top=0;left=0;right=0;bottom=0;" vertex="1" parent="7W3f4tXXFIH6tPftR0kk-128">
          <mxGeometry y="157" width="151" height="22" as="geometry" />
        </mxCell>
        <mxCell id="7W3f4tXXFIH6tPftR0kk-154" value="string" style="shape=partialRectangle;connectable=0;fillColor=none;top=0;left=0;bottom=0;right=0;align=left;spacingLeft=2;overflow=hidden;fontSize=11;" vertex="1" parent="7W3f4tXXFIH6tPftR0kk-153">
          <mxGeometry width="42" height="22" as="geometry">
            <mxRectangle width="42" height="22" as="alternateBounds" />
          </mxGeometry>
        </mxCell>
        <mxCell id="7W3f4tXXFIH6tPftR0kk-155" value="PaymentStatus" style="shape=partialRectangle;connectable=0;fillColor=none;top=0;left=0;bottom=0;right=0;align=left;spacingLeft=2;overflow=hidden;fontSize=11;" vertex="1" parent="7W3f4tXXFIH6tPftR0kk-153">
          <mxGeometry x="42" width="87" height="22" as="geometry">
            <mxRectangle width="87" height="22" as="alternateBounds" />
          </mxGeometry>
        </mxCell>
        <mxCell id="7W3f4tXXFIH6tPftR0kk-156" value="" style="shape=partialRectangle;connectable=0;fillColor=none;top=0;left=0;bottom=0;right=0;align=left;spacingLeft=2;overflow=hidden;fontSize=11;" vertex="1" parent="7W3f4tXXFIH6tPftR0kk-153">
          <mxGeometry x="129" width="22" height="22" as="geometry">
            <mxRectangle width="22" height="22" as="alternateBounds" />
          </mxGeometry>
        </mxCell>
        <mxCell id="7W3f4tXXFIH6tPftR0kk-157" value="DISTRIBUTOR" style="shape=table;startSize=25;container=1;collapsible=0;childLayout=tableLayout;fixedRows=1;rowLines=1;fontStyle=1;align=center;resizeLast=1;" vertex="1" parent="1">
          <mxGeometry x="985" y="550" width="148" height="92" as="geometry" />
        </mxCell>
        <mxCell id="7W3f4tXXFIH6tPftR0kk-158" style="shape=tableRow;horizontal=0;startSize=0;swimlaneHead=0;swimlaneBody=0;fillColor=none;collapsible=0;dropTarget=0;points=[[0,0.5],[1,0.5]];portConstraint=eastwest;top=0;left=0;right=0;bottom=0;" vertex="1" parent="7W3f4tXXFIH6tPftR0kk-157">
          <mxGeometry y="25" width="148" height="22" as="geometry" />
        </mxCell>
        <mxCell id="7W3f4tXXFIH6tPftR0kk-159" value="int" style="shape=partialRectangle;connectable=0;fillColor=none;top=0;left=0;bottom=0;right=0;align=left;spacingLeft=2;overflow=hidden;fontSize=11;" vertex="1" parent="7W3f4tXXFIH6tPftR0kk-158">
          <mxGeometry width="36" height="22" as="geometry">
            <mxRectangle width="36" height="22" as="alternateBounds" />
          </mxGeometry>
        </mxCell>
        <mxCell id="7W3f4tXXFIH6tPftR0kk-160" value="DistributorID" style="shape=partialRectangle;connectable=0;fillColor=none;top=0;left=0;bottom=0;right=0;align=left;spacingLeft=2;overflow=hidden;fontSize=11;" vertex="1" parent="7W3f4tXXFIH6tPftR0kk-158">
          <mxGeometry x="36" width="90" height="22" as="geometry">
            <mxRectangle width="90" height="22" as="alternateBounds" />
          </mxGeometry>
        </mxCell>
        <mxCell id="7W3f4tXXFIH6tPftR0kk-161" value="PK" style="shape=partialRectangle;connectable=0;fillColor=none;top=0;left=0;bottom=0;right=0;align=left;spacingLeft=2;overflow=hidden;fontSize=11;" vertex="1" parent="7W3f4tXXFIH6tPftR0kk-158">
          <mxGeometry x="126" width="22" height="22" as="geometry">
            <mxRectangle width="22" height="22" as="alternateBounds" />
          </mxGeometry>
        </mxCell>
        <mxCell id="7W3f4tXXFIH6tPftR0kk-162" style="shape=tableRow;horizontal=0;startSize=0;swimlaneHead=0;swimlaneBody=0;fillColor=none;collapsible=0;dropTarget=0;points=[[0,0.5],[1,0.5]];portConstraint=eastwest;top=0;left=0;right=0;bottom=0;" vertex="1" parent="7W3f4tXXFIH6tPftR0kk-157">
          <mxGeometry y="47" width="148" height="22" as="geometry" />
        </mxCell>
        <mxCell id="7W3f4tXXFIH6tPftR0kk-163" value="string" style="shape=partialRectangle;connectable=0;fillColor=none;top=0;left=0;bottom=0;right=0;align=left;spacingLeft=2;overflow=hidden;fontSize=11;" vertex="1" parent="7W3f4tXXFIH6tPftR0kk-162">
          <mxGeometry width="36" height="22" as="geometry">
            <mxRectangle width="36" height="22" as="alternateBounds" />
          </mxGeometry>
        </mxCell>
        <mxCell id="7W3f4tXXFIH6tPftR0kk-164" value="DistributorName" style="shape=partialRectangle;connectable=0;fillColor=none;top=0;left=0;bottom=0;right=0;align=left;spacingLeft=2;overflow=hidden;fontSize=11;" vertex="1" parent="7W3f4tXXFIH6tPftR0kk-162">
          <mxGeometry x="36" width="90" height="22" as="geometry">
            <mxRectangle width="90" height="22" as="alternateBounds" />
          </mxGeometry>
        </mxCell>
        <mxCell id="7W3f4tXXFIH6tPftR0kk-165" value="" style="shape=partialRectangle;connectable=0;fillColor=none;top=0;left=0;bottom=0;right=0;align=left;spacingLeft=2;overflow=hidden;fontSize=11;" vertex="1" parent="7W3f4tXXFIH6tPftR0kk-162">
          <mxGeometry x="126" width="22" height="22" as="geometry">
            <mxRectangle width="22" height="22" as="alternateBounds" />
          </mxGeometry>
        </mxCell>
        <mxCell id="7W3f4tXXFIH6tPftR0kk-166" style="shape=tableRow;horizontal=0;startSize=0;swimlaneHead=0;swimlaneBody=0;fillColor=none;collapsible=0;dropTarget=0;points=[[0,0.5],[1,0.5]];portConstraint=eastwest;top=0;left=0;right=0;bottom=0;" vertex="1" parent="7W3f4tXXFIH6tPftR0kk-157">
          <mxGeometry y="69" width="148" height="22" as="geometry" />
        </mxCell>
        <mxCell id="7W3f4tXXFIH6tPftR0kk-167" value="string" style="shape=partialRectangle;connectable=0;fillColor=none;top=0;left=0;bottom=0;right=0;align=left;spacingLeft=2;overflow=hidden;fontSize=11;" vertex="1" parent="7W3f4tXXFIH6tPftR0kk-166">
          <mxGeometry width="36" height="22" as="geometry">
            <mxRectangle width="36" height="22" as="alternateBounds" />
          </mxGeometry>
        </mxCell>
        <mxCell id="7W3f4tXXFIH6tPftR0kk-168" value="ContactInfo" style="shape=partialRectangle;connectable=0;fillColor=none;top=0;left=0;bottom=0;right=0;align=left;spacingLeft=2;overflow=hidden;fontSize=11;" vertex="1" parent="7W3f4tXXFIH6tPftR0kk-166">
          <mxGeometry x="36" width="90" height="22" as="geometry">
            <mxRectangle width="90" height="22" as="alternateBounds" />
          </mxGeometry>
        </mxCell>
        <mxCell id="7W3f4tXXFIH6tPftR0kk-169" value="" style="shape=partialRectangle;connectable=0;fillColor=none;top=0;left=0;bottom=0;right=0;align=left;spacingLeft=2;overflow=hidden;fontSize=11;" vertex="1" parent="7W3f4tXXFIH6tPftR0kk-166">
          <mxGeometry x="126" width="22" height="22" as="geometry">
            <mxRectangle width="22" height="22" as="alternateBounds" />
          </mxGeometry>
        </mxCell>
        <mxCell id="7W3f4tXXFIH6tPftR0kk-170" value="WINE_DISTRIBUTOR" style="shape=table;startSize=25;container=1;collapsible=0;childLayout=tableLayout;fixedRows=1;rowLines=1;fontStyle=1;align=center;resizeLast=1;" vertex="1" parent="1">
          <mxGeometry x="1263" y="799" width="142" height="92" as="geometry" />
        </mxCell>
        <mxCell id="7W3f4tXXFIH6tPftR0kk-171" style="shape=tableRow;horizontal=0;startSize=0;swimlaneHead=0;swimlaneBody=0;fillColor=none;collapsible=0;dropTarget=0;points=[[0,0.5],[1,0.5]];portConstraint=eastwest;top=0;left=0;right=0;bottom=0;" vertex="1" parent="7W3f4tXXFIH6tPftR0kk-170">
          <mxGeometry y="25" width="142" height="22" as="geometry" />
        </mxCell>
        <mxCell id="7W3f4tXXFIH6tPftR0kk-172" value="int" style="shape=partialRectangle;connectable=0;fillColor=none;top=0;left=0;bottom=0;right=0;align=left;spacingLeft=2;overflow=hidden;fontSize=11;" vertex="1" parent="7W3f4tXXFIH6tPftR0kk-171">
          <mxGeometry width="18" height="22" as="geometry">
            <mxRectangle width="18" height="22" as="alternateBounds" />
          </mxGeometry>
        </mxCell>
        <mxCell id="7W3f4tXXFIH6tPftR0kk-173" value="WineDistributorID" style="shape=partialRectangle;connectable=0;fillColor=none;top=0;left=0;bottom=0;right=0;align=left;spacingLeft=2;overflow=hidden;fontSize=11;" vertex="1" parent="7W3f4tXXFIH6tPftR0kk-171">
          <mxGeometry x="18" width="102" height="22" as="geometry">
            <mxRectangle width="102" height="22" as="alternateBounds" />
          </mxGeometry>
        </mxCell>
        <mxCell id="7W3f4tXXFIH6tPftR0kk-174" value="PK" style="shape=partialRectangle;connectable=0;fillColor=none;top=0;left=0;bottom=0;right=0;align=left;spacingLeft=2;overflow=hidden;fontSize=11;" vertex="1" parent="7W3f4tXXFIH6tPftR0kk-171">
          <mxGeometry x="120" width="22" height="22" as="geometry">
            <mxRectangle width="22" height="22" as="alternateBounds" />
          </mxGeometry>
        </mxCell>
        <mxCell id="7W3f4tXXFIH6tPftR0kk-175" style="shape=tableRow;horizontal=0;startSize=0;swimlaneHead=0;swimlaneBody=0;fillColor=none;collapsible=0;dropTarget=0;points=[[0,0.5],[1,0.5]];portConstraint=eastwest;top=0;left=0;right=0;bottom=0;" vertex="1" parent="7W3f4tXXFIH6tPftR0kk-170">
          <mxGeometry y="47" width="142" height="22" as="geometry" />
        </mxCell>
        <mxCell id="7W3f4tXXFIH6tPftR0kk-176" value="int" style="shape=partialRectangle;connectable=0;fillColor=none;top=0;left=0;bottom=0;right=0;align=left;spacingLeft=2;overflow=hidden;fontSize=11;" vertex="1" parent="7W3f4tXXFIH6tPftR0kk-175">
          <mxGeometry width="18" height="22" as="geometry">
            <mxRectangle width="18" height="22" as="alternateBounds" />
          </mxGeometry>
        </mxCell>
        <mxCell id="7W3f4tXXFIH6tPftR0kk-177" value="WineID" style="shape=partialRectangle;connectable=0;fillColor=none;top=0;left=0;bottom=0;right=0;align=left;spacingLeft=2;overflow=hidden;fontSize=11;" vertex="1" parent="7W3f4tXXFIH6tPftR0kk-175">
          <mxGeometry x="18" width="102" height="22" as="geometry">
            <mxRectangle width="102" height="22" as="alternateBounds" />
          </mxGeometry>
        </mxCell>
        <mxCell id="7W3f4tXXFIH6tPftR0kk-178" value="FK" style="shape=partialRectangle;connectable=0;fillColor=none;top=0;left=0;bottom=0;right=0;align=left;spacingLeft=2;overflow=hidden;fontSize=11;" vertex="1" parent="7W3f4tXXFIH6tPftR0kk-175">
          <mxGeometry x="120" width="22" height="22" as="geometry">
            <mxRectangle width="22" height="22" as="alternateBounds" />
          </mxGeometry>
        </mxCell>
        <mxCell id="7W3f4tXXFIH6tPftR0kk-179" style="shape=tableRow;horizontal=0;startSize=0;swimlaneHead=0;swimlaneBody=0;fillColor=none;collapsible=0;dropTarget=0;points=[[0,0.5],[1,0.5]];portConstraint=eastwest;top=0;left=0;right=0;bottom=0;" vertex="1" parent="7W3f4tXXFIH6tPftR0kk-170">
          <mxGeometry y="69" width="142" height="22" as="geometry" />
        </mxCell>
        <mxCell id="7W3f4tXXFIH6tPftR0kk-180" value="int" style="shape=partialRectangle;connectable=0;fillColor=none;top=0;left=0;bottom=0;right=0;align=left;spacingLeft=2;overflow=hidden;fontSize=11;" vertex="1" parent="7W3f4tXXFIH6tPftR0kk-179">
          <mxGeometry width="18" height="22" as="geometry">
            <mxRectangle width="18" height="22" as="alternateBounds" />
          </mxGeometry>
        </mxCell>
        <mxCell id="7W3f4tXXFIH6tPftR0kk-181" value="DistributorID" style="shape=partialRectangle;connectable=0;fillColor=none;top=0;left=0;bottom=0;right=0;align=left;spacingLeft=2;overflow=hidden;fontSize=11;" vertex="1" parent="7W3f4tXXFIH6tPftR0kk-179">
          <mxGeometry x="18" width="102" height="22" as="geometry">
            <mxRectangle width="102" height="22" as="alternateBounds" />
          </mxGeometry>
        </mxCell>
        <mxCell id="7W3f4tXXFIH6tPftR0kk-182" value="FK" style="shape=partialRectangle;connectable=0;fillColor=none;top=0;left=0;bottom=0;right=0;align=left;spacingLeft=2;overflow=hidden;fontSize=11;" vertex="1" parent="7W3f4tXXFIH6tPftR0kk-179">
          <mxGeometry x="120" width="22" height="22" as="geometry">
            <mxRectangle width="22" height="22" as="alternateBounds" />
          </mxGeometry>
        </mxCell>
        <mxCell id="7W3f4tXXFIH6tPftR0kk-183" value="logs" style="curved=1;startArrow=ERmandOne;startSize=10;;endArrow=ERoneToMany;endSize=10;;exitX=1;exitY=1;entryX=0.5;entryY=0;rounded=0;" edge="1" parent="1" source="7W3f4tXXFIH6tPftR0kk-1" target="7W3f4tXXFIH6tPftR0kk-27">
          <mxGeometry relative="1" as="geometry">
            <Array as="points">
              <mxPoint x="352" y="185" />
            </Array>
          </mxGeometry>
        </mxCell>
        <mxCell id="7W3f4tXXFIH6tPftR0kk-184" value="belongs_to" style="curved=1;startArrow=ERzeroToMany;startSize=10;;endArrow=ERmandOne;endSize=10;;exitX=0;exitY=1;entryX=0.5;entryY=0;rounded=0;" edge="1" parent="1" source="7W3f4tXXFIH6tPftR0kk-1" target="7W3f4tXXFIH6tPftR0kk-18">
          <mxGeometry relative="1" as="geometry">
            <Array as="points">
              <mxPoint x="97" y="185" />
            </Array>
          </mxGeometry>
        </mxCell>
        <mxCell id="7W3f4tXXFIH6tPftR0kk-185" value="provides" style="curved=1;startArrow=ERmandOne;startSize=10;;endArrow=ERzeroToMany;endSize=10;;exitX=0.5;exitY=1;entryX=0.49;entryY=0;rounded=0;" edge="1" parent="1" source="7W3f4tXXFIH6tPftR0kk-48" target="7W3f4tXXFIH6tPftR0kk-61">
          <mxGeometry relative="1" as="geometry">
            <Array as="points" />
          </mxGeometry>
        </mxCell>
        <mxCell id="7W3f4tXXFIH6tPftR0kk-186" value="updates_stock" style="curved=1;startArrow=ERmandOne;startSize=10;;endArrow=ERzeroToMany;endSize=10;;exitX=0.49;exitY=1;entryX=0.3;entryY=0;rounded=0;" edge="1" parent="1" source="7W3f4tXXFIH6tPftR0kk-61" target="7W3f4tXXFIH6tPftR0kk-111">
          <mxGeometry relative="1" as="geometry">
            <Array as="points">
              <mxPoint x="617" y="489" />
            </Array>
          </mxGeometry>
        </mxCell>
        <mxCell id="7W3f4tXXFIH6tPftR0kk-187" value="reduces_stock" style="curved=1;startArrow=ERmandOne;startSize=10;;endArrow=ERoneToMany;endSize=10;;exitX=0.5;exitY=1;entryX=0;entryY=0.28;rounded=0;" edge="1" parent="1" source="7W3f4tXXFIH6tPftR0kk-111" target="7W3f4tXXFIH6tPftR0kk-128">
          <mxGeometry relative="1" as="geometry">
            <Array as="points">
              <mxPoint x="667" y="704" />
            </Array>
          </mxGeometry>
        </mxCell>
        <mxCell id="7W3f4tXXFIH6tPftR0kk-188" value="stored_as" style="curved=1;startArrow=ERmandOne;startSize=10;;endArrow=ERzeroToMany;endSize=10;;exitX=0.19;exitY=0.99;entryX=0.84;entryY=0;rounded=0;" edge="1" parent="1" source="7W3f4tXXFIH6tPftR0kk-94" target="7W3f4tXXFIH6tPftR0kk-111">
          <mxGeometry relative="1" as="geometry">
            <Array as="points">
              <mxPoint x="752" y="489" />
            </Array>
          </mxGeometry>
        </mxCell>
        <mxCell id="7W3f4tXXFIH6tPftR0kk-189" value="sold_as" style="curved=1;startArrow=ERmandOne;startSize=10;;endArrow=ERoneToMany;endSize=10;;exitX=0.49;exitY=0.99;entryX=0.29;entryY=0;rounded=0;" edge="1" parent="1" source="7W3f4tXXFIH6tPftR0kk-94" target="7W3f4tXXFIH6tPftR0kk-128">
          <mxGeometry relative="1" as="geometry">
            <Array as="points">
              <mxPoint x="885" y="704" />
            </Array>
          </mxGeometry>
        </mxCell>
        <mxCell id="7W3f4tXXFIH6tPftR0kk-190" value="buys_from" style="curved=1;startArrow=ERmandOne;startSize=10;;endArrow=ERoneToMany;endSize=10;;exitX=0.5;exitY=1;entryX=1;entryY=0.03;rounded=0;" edge="1" parent="1" source="7W3f4tXXFIH6tPftR0kk-157" target="7W3f4tXXFIH6tPftR0kk-128">
          <mxGeometry relative="1" as="geometry">
            <Array as="points">
              <mxPoint x="1059" y="704" />
            </Array>
          </mxGeometry>
        </mxCell>
        <mxCell id="7W3f4tXXFIH6tPftR0kk-191" value="available_at" style="curved=1;startArrow=ERmandOne;startSize=10;;endArrow=ERzeroToMany;endSize=10;;exitX=0.97;exitY=0.8;entryX=0.26;entryY=-0.01;rounded=0;" edge="1" parent="1" source="7W3f4tXXFIH6tPftR0kk-94" target="7W3f4tXXFIH6tPftR0kk-170">
          <mxGeometry relative="1" as="geometry">
            <Array as="points">
              <mxPoint x="1233" y="489" />
              <mxPoint x="1233" y="704" />
            </Array>
          </mxGeometry>
        </mxCell>
        <mxCell id="7W3f4tXXFIH6tPftR0kk-192" value="carries" style="curved=1;startArrow=ERmandOne;startSize=10;;endArrow=ERzeroToMany;endSize=10;;exitX=1;exitY=0.82;entryX=0.49;entryY=-0.01;rounded=0;" edge="1" parent="1" source="7W3f4tXXFIH6tPftR0kk-157" target="7W3f4tXXFIH6tPftR0kk-170">
          <mxGeometry relative="1" as="geometry">
            <Array as="points">
              <mxPoint x="1333" y="704" />
            </Array>
          </mxGeometry>
        </mxCell>
      </root>
    </mxGraphModel>
  </diagram>
</mxfile>
